<?xml version="1.0" standalone="no"?>
<!DOCTYPE svg PUBLIC "-//W3C//DTD SVG 20010904//EN"
 "http://www.w3.org/TR/2001/REC-SVG-20010904/DTD/svg10.dtd">
<svg version="1.0" xmlns="http://www.w3.org/2000/svg"
 width="700.000000pt" height="700.000000pt" viewBox="0 0 700.000000 700.000000"
 preserveAspectRatio="xMidYMid meet">
<metadata>
Created by potrace 1.14, written by Peter Selinger 2001-2017
</metadata>
<g transform="translate(0.000000,700.000000) scale(0.100000,-0.100000)"
fill="#000000" stroke="none">
<path d="M1015 6522 c-97 -9 -104 -34 -42 -153 24 -46 104 -201 177 -344 131
-257 230 -451 420 -820 54 -104 153 -298 220 -430 67 -132 160 -312 205 -400
45 -88 142 -277 215 -420 73 -143 153 -298 178 -345 27 -52 44 -97 43 -117 0
-20 -38 -105 -99 -225 -55 -106 -150 -292 -212 -413 -62 -121 -147 -287 -190
-370 -42 -82 -146 -285 -231 -450 -84 -165 -189 -371 -233 -457 -45 -87 -130
-253 -190 -370 -60 -117 -149 -292 -199 -388 -152 -296 -150 -291 -141 -319 5
-14 20 -27 34 -31 14 -3 816 -6 1782 -5 1753 0 1757 0 1785 20 15 12 48 61 74
110 26 50 92 180 149 290 56 110 148 290 205 400 56 110 155 304 220 430 65
127 155 302 200 390 45 88 135 264 200 390 177 347 340 664 416 813 59 113 69
141 69 184 0 53 -5 64 -395 823 -45 88 -140 273 -210 410 -70 138 -171 336
-225 440 -225 438 -284 554 -425 830 -261 509 -249 489 -284 508 -30 18 -99
19 -1759 20 -950 1 -1740 1 -1757 -1z"/>
</g>
</svg>
